<svg width="90" height="29" viewBox="0 0 90 29" fill="none" xmlns="http://www.w3.org/2000/svg">
<g filter="url(#filter0_d_102_9)">
<path d="M8 20C31.4 12.7556 43.75 16.9815 47 20" stroke="#9325C7"/>
<path d="M8.14941 16.7246C7.66113 16.7246 7.2168 16.6074 6.81641 16.373C6.42578 16.1387 6.08887 15.8164 5.80566 15.4062C5.53223 14.9961 5.32227 14.5176 5.17578 13.9707C5.03906 13.4141 4.98047 12.8232 5 12.1982C5.01953 11.6123 5.09277 10.9775 5.21973 10.2939C5.35645 9.61035 5.54688 8.92676 5.79102 8.24316C6.03516 7.5498 6.32812 6.88574 6.66992 6.25098C7.02148 5.60645 7.42188 5.04004 7.87109 4.55176C8.32031 4.06348 8.81836 3.67285 9.36523 3.37988C9.91211 3.07715 10.5127 2.92578 11.167 2.92578C11.5674 2.92578 11.9043 3.00879 12.1777 3.1748C12.4609 3.33105 12.6855 3.54102 12.8516 3.80469C13.0273 4.06836 13.1494 4.36621 13.2178 4.69824C13.2861 5.03027 13.3154 5.36719 13.3057 5.70898C13.2861 6.03125 13.2373 6.34375 13.1592 6.64648C13.0908 6.94922 12.9883 7.22266 12.8516 7.4668C12.7246 7.70117 12.5635 7.8916 12.3682 8.03809C12.1826 8.1748 11.9678 8.24316 11.7236 8.24316C11.6064 8.2334 11.4941 8.19434 11.3867 8.12598C11.2891 8.06738 11.1865 7.97949 11.0791 7.8623C10.9814 7.74512 10.8887 7.57422 10.8008 7.34961C11.0645 7.24219 11.2695 7.05664 11.416 6.79297C11.5723 6.51953 11.6895 6.23633 11.7676 5.94336C11.8555 5.61133 11.9141 5.24023 11.9434 4.83008C11.9629 4.42969 11.8799 4.13672 11.6943 3.95117C11.5088 3.76563 11.2988 3.67285 11.0645 3.67285C10.6055 3.67285 10.1221 3.91211 9.61426 4.39062C9.10645 4.86914 8.63281 5.51855 8.19336 6.33887C7.76367 7.14941 7.39746 8.09668 7.09473 9.18066C6.80176 10.2646 6.63086 11.4121 6.58203 12.623C6.5625 13.1699 6.59668 13.6338 6.68457 14.0146C6.78223 14.3955 6.91406 14.708 7.08008 14.9521C7.25586 15.1963 7.45117 15.3721 7.66602 15.4795C7.88086 15.5869 8.0957 15.6406 8.31055 15.6406C8.65234 15.6406 8.97461 15.5674 9.27734 15.4209C9.58008 15.2744 9.85352 15.0938 10.0977 14.8789C10.3516 14.6641 10.5664 14.4395 10.7422 14.2051C10.9277 13.9805 11.0693 13.7803 11.167 13.6045C11.2354 13.4775 11.3086 13.3994 11.3867 13.3701C11.4648 13.3408 11.5332 13.3506 11.5918 13.3994C11.6504 13.4385 11.6895 13.5068 11.709 13.6045C11.7285 13.6924 11.709 13.7998 11.6504 13.9268C11.4844 14.2588 11.2793 14.5908 11.0352 14.9229C10.8008 15.2549 10.5322 15.5527 10.2295 15.8164C9.93652 16.0898 9.61426 16.3096 9.2627 16.4756C8.91113 16.6416 8.54004 16.7246 8.14941 16.7246ZM13.0127 13.7656C13.4424 11.959 13.7842 10.5088 14.0381 9.41504C14.3018 8.32129 14.502 7.48633 14.6387 6.91016C14.7949 6.22656 14.9023 5.75293 14.9609 5.48926C14.9902 5.30371 15.0146 5.12305 15.0342 4.94727C15.0537 4.79102 15.0635 4.62988 15.0635 4.46387C15.0635 4.29785 15.0488 4.14648 15.0195 4.00977C15.0977 3.96094 15.1807 3.92188 15.2686 3.89258C15.3662 3.86328 15.459 3.83887 15.5469 3.81934C15.6543 3.79004 15.7617 3.76563 15.8691 3.74609C15.9766 3.72656 16.0742 3.7168 16.1621 3.7168C16.2402 3.7168 16.3135 3.72656 16.3818 3.74609C16.4502 3.75586 16.4941 3.78516 16.5137 3.83398C16.5723 3.88281 16.5967 3.98047 16.5869 4.12695C16.5869 4.27344 16.5771 4.4248 16.5576 4.58105C16.5186 4.7666 16.4746 4.9668 16.4258 5.18164C16.3086 5.60156 16.1475 6.20703 15.9424 6.99805C15.7666 7.67188 15.5273 8.58984 15.2246 9.75195C14.9316 10.9141 14.5605 12.3789 14.1113 14.1465C14.0625 14.1953 14.0039 14.2295 13.9355 14.249C13.8672 14.2686 13.8037 14.2783 13.7451 14.2783C13.6768 14.2783 13.6035 14.2734 13.5254 14.2637C13.457 14.2441 13.3887 14.2148 13.3203 14.1758C13.2617 14.1367 13.2031 14.083 13.1445 14.0146C13.0859 13.9561 13.042 13.873 13.0127 13.7656ZM24.0283 11.085C23.8916 11.2803 23.7158 11.5244 23.501 11.8174C23.2861 12.1006 23.0615 12.3887 22.8271 12.6816C22.6025 12.9648 22.3779 13.2285 22.1533 13.4727C21.9385 13.707 21.7578 13.873 21.6113 13.9707C21.5137 14.0293 21.4014 14.0781 21.2744 14.1172C21.1475 14.1562 21.0156 14.1807 20.8789 14.1904C20.752 14.2002 20.6299 14.1904 20.5127 14.1611C20.3955 14.1416 20.293 14.1025 20.2051 14.0439C20.1172 13.9756 20.0439 13.8779 19.9854 13.751C19.9365 13.6436 19.8877 13.502 19.8389 13.3262C19.7998 13.1504 19.7852 12.9307 19.7949 12.667C19.5605 13.0576 19.3018 13.3604 19.0186 13.5752C18.7354 13.7803 18.4668 13.9316 18.2129 14.0293C17.9199 14.1367 17.627 14.2002 17.334 14.2197C17.1973 14.2197 17.0508 14.1709 16.8945 14.0732C16.7383 13.9854 16.6064 13.8438 16.499 13.6484C16.3916 13.4434 16.3232 13.1846 16.2939 12.8721C16.2646 12.5498 16.3037 12.1689 16.4111 11.7295C16.5479 11.1338 16.7627 10.5918 17.0557 10.1035C17.3584 9.61523 17.6855 9.2002 18.0371 8.8584C18.3887 8.50684 18.7354 8.24316 19.0771 8.06738C19.4189 7.8916 19.7021 7.81348 19.9268 7.83301C20.1904 7.88184 20.4053 7.95996 20.5713 8.06738C20.708 8.16504 20.7959 8.31152 20.835 8.50684C20.8838 8.69238 20.8057 8.94141 20.6006 9.25391C20.7373 9.22461 20.8496 9.20508 20.9375 9.19531C21.0352 9.18555 21.1084 9.18066 21.1572 9.18066C21.2158 9.18066 21.2549 9.18555 21.2744 9.19531C21.2842 9.21484 21.2891 9.25879 21.2891 9.32715C21.2891 9.38574 21.2744 9.49805 21.2451 9.66406C21.2158 9.83008 21.1719 10.0547 21.1133 10.3379C21.0547 10.6211 20.9766 10.9873 20.8789 11.4365C20.8594 11.5244 20.8398 11.6074 20.8203 11.6855C20.8105 11.7539 20.7959 11.8271 20.7764 11.9053C20.7666 11.9736 20.752 12.0566 20.7324 12.1543C20.7129 12.252 20.6885 12.374 20.6592 12.5205C20.6494 12.6084 20.6445 12.7061 20.6445 12.8135C20.6543 12.9111 20.6738 13.0039 20.7031 13.0918C20.7324 13.1797 20.7764 13.2529 20.835 13.3115C20.9033 13.3604 20.9961 13.3848 21.1133 13.3848C21.2109 13.3848 21.3379 13.3262 21.4941 13.209C21.6504 13.082 21.8164 12.9258 21.9922 12.7402C22.168 12.5449 22.3486 12.335 22.5342 12.1104C22.7295 11.876 22.9102 11.6514 23.0762 11.4365C23.2422 11.2217 23.3887 11.0312 23.5156 10.8652C23.6523 10.6992 23.75 10.5771 23.8086 10.499C23.8867 10.4111 23.9648 10.3623 24.043 10.3525C24.1211 10.333 24.1797 10.3525 24.2188 10.4111C24.2578 10.4697 24.2627 10.5576 24.2334 10.6748C24.2139 10.792 24.1455 10.9287 24.0283 11.085ZM19.7363 11.7295C19.7852 11.5342 19.8438 11.3047 19.9121 11.041C19.9805 10.7773 20.0391 10.5234 20.0879 10.2793C20.1367 10.0352 20.1709 9.83496 20.1904 9.67871C20.2197 9.5127 20.2148 9.43457 20.1758 9.44434C20.127 9.4541 20.0732 9.46875 20.0146 9.48828C19.9658 9.50781 19.9023 9.52246 19.8242 9.53223C19.7461 9.54199 19.668 9.55664 19.5898 9.57617C19.668 9.41992 19.7119 9.29297 19.7217 9.19531C19.7412 9.08789 19.7461 9.00488 19.7363 8.94629C19.7266 8.87793 19.707 8.82422 19.6777 8.78516C19.5703 8.69727 19.3799 8.77051 19.1064 9.00488C18.8428 9.22949 18.5352 9.64941 18.1836 10.2646C18.0371 10.5186 17.9199 10.792 17.832 11.085C17.7441 11.3682 17.6807 11.6367 17.6416 11.8906C17.6123 12.1445 17.6074 12.3691 17.627 12.5645C17.6465 12.75 17.6855 12.8721 17.7441 12.9307C17.8516 13.0381 17.9736 13.0918 18.1104 13.0918C18.2471 13.082 18.3838 13.043 18.5205 12.9746C18.667 12.8965 18.8086 12.7988 18.9453 12.6816C19.0918 12.5645 19.2188 12.4424 19.3262 12.3154C19.4434 12.1885 19.5361 12.0713 19.6045 11.9639C19.6826 11.8564 19.7266 11.7783 19.7363 11.7295ZM28.4521 10.2939C28.4912 10.2354 28.54 10.2012 28.5986 10.1914C28.667 10.1719 28.7207 10.1768 28.7598 10.2061C28.7988 10.2354 28.8184 10.2842 28.8184 10.3525C28.8281 10.4209 28.8037 10.5137 28.7451 10.6309C28.5498 11.002 28.291 11.4023 27.9688 11.832C27.6562 12.2617 27.3242 12.667 26.9727 13.0479C26.6211 13.4189 26.2793 13.7266 25.9473 13.9707C25.6152 14.2148 25.3369 14.3369 25.1123 14.3369C24.79 14.3369 24.5215 14.2734 24.3066 14.1465C24.0918 14.0195 23.9209 13.8633 23.7939 13.6777C23.6768 13.4922 23.5938 13.292 23.5449 13.0771C23.4961 12.8525 23.4814 12.6475 23.501 12.4619C23.5107 12.3057 23.5449 12.0273 23.6035 11.627C23.6621 11.2168 23.7402 10.748 23.8379 10.2207C23.9355 9.68359 24.043 9.1123 24.1602 8.50684C24.2871 7.8916 24.4189 7.30078 24.5557 6.73438C24.3896 6.75391 24.2236 6.77344 24.0576 6.79297C23.8916 6.8125 23.7402 6.82227 23.6035 6.82227C23.291 6.82227 22.998 6.78809 22.7246 6.71973C22.4414 6.6416 22.2314 6.56836 22.0947 6.5C22.0166 6.46094 21.9824 6.40723 21.9922 6.33887C22.002 6.26074 22.0312 6.1875 22.0801 6.11914C22.1289 6.04102 22.1924 5.97754 22.2705 5.92871C22.3389 5.87012 22.4023 5.84082 22.4609 5.84082C22.6465 5.86035 22.8467 5.87988 23.0615 5.89941C23.2764 5.90918 23.5107 5.90918 23.7646 5.89941C23.9502 5.88965 24.126 5.875 24.292 5.85547C24.4678 5.83594 24.6387 5.81152 24.8047 5.78223C24.9316 5.31348 25.0537 4.9082 25.1709 4.56641C25.2979 4.21484 25.4102 3.9707 25.5078 3.83398C25.5371 3.78516 25.6006 3.74609 25.6982 3.7168C25.8057 3.67773 25.918 3.65332 26.0352 3.64355C26.1523 3.62402 26.2646 3.62402 26.3721 3.64355C26.4795 3.65332 26.5576 3.6875 26.6064 3.74609C26.6553 3.82422 26.6748 4.02441 26.665 4.34668C26.6553 4.66895 26.6016 5.0791 26.5039 5.57715C26.9141 5.57715 27.2754 5.60156 27.5879 5.65039C27.9102 5.68945 28.1836 5.73828 28.4082 5.79688C28.6328 5.8457 28.8135 5.89941 28.9502 5.95801C29.0869 6.00684 29.1895 6.04102 29.2578 6.06055C29.3262 6.08008 29.3604 6.12891 29.3604 6.20703C29.3701 6.28516 29.3555 6.36816 29.3164 6.45605C29.2871 6.53418 29.2334 6.60254 29.1553 6.66113C29.0771 6.71973 28.9893 6.73926 28.8916 6.71973C28.7939 6.70996 28.6816 6.69043 28.5547 6.66113C28.4375 6.63184 28.291 6.60742 28.1152 6.58789C27.9492 6.56836 27.749 6.54883 27.5146 6.5293C27.2803 6.50977 27.0068 6.5 26.6943 6.5C26.6357 6.5 26.5674 6.50488 26.4893 6.51465C26.4209 6.51465 26.3477 6.51465 26.2695 6.51465C26.2305 6.6709 26.1914 6.82715 26.1523 6.9834C26.123 7.12988 26.0791 7.28613 26.0205 7.45215C25.8936 7.84277 25.7471 8.26758 25.5811 8.72656C25.4346 9.12695 25.2588 9.58594 25.0537 10.1035C24.8486 10.6211 24.6191 11.1729 24.3652 11.7588C24.3066 12.1787 24.3115 12.501 24.3799 12.7256C24.458 12.9404 24.5508 13.0967 24.6582 13.1943C24.7852 13.3018 24.9414 13.3604 25.127 13.3701C25.2734 13.3896 25.4492 13.3408 25.6543 13.2236C25.8691 13.0967 26.0889 12.9307 26.3135 12.7256C26.5381 12.5205 26.7627 12.2959 26.9873 12.0518C27.2217 11.8076 27.4365 11.5684 27.6318 11.334C27.8271 11.0996 27.998 10.8896 28.1445 10.7041C28.291 10.5088 28.3936 10.3721 28.4521 10.2939ZM32.9785 10.2939C33.0176 10.2354 33.0664 10.2012 33.125 10.1914C33.1934 10.1719 33.2471 10.1768 33.2861 10.2061C33.3252 10.2354 33.3447 10.2842 33.3447 10.3525C33.3545 10.4209 33.3301 10.5137 33.2715 10.6309C33.0762 11.002 32.8174 11.4023 32.4951 11.832C32.1826 12.2617 31.8506 12.667 31.499 13.0479C31.1475 13.4189 30.8057 13.7266 30.4736 13.9707C30.1416 14.2148 29.8633 14.3369 29.6387 14.3369C29.3164 14.3369 29.0479 14.2734 28.833 14.1465C28.6182 14.0195 28.4473 13.8633 28.3203 13.6777C28.2031 13.4922 28.1201 13.292 28.0713 13.0771C28.0225 12.8525 28.0078 12.6475 28.0273 12.4619C28.0371 12.3057 28.0713 12.0273 28.1299 11.627C28.1885 11.2168 28.2666 10.748 28.3643 10.2207C28.4619 9.68359 28.5693 9.1123 28.6865 8.50684C28.8135 7.8916 28.9453 7.30078 29.082 6.73438C28.916 6.75391 28.75 6.77344 28.584 6.79297C28.418 6.8125 28.2666 6.82227 28.1299 6.82227C27.8174 6.82227 27.5244 6.78809 27.251 6.71973C26.9678 6.6416 26.7578 6.56836 26.6211 6.5C26.543 6.46094 26.5088 6.40723 26.5186 6.33887C26.5283 6.26074 26.5576 6.1875 26.6064 6.11914C26.6553 6.04102 26.7188 5.97754 26.7969 5.92871C26.8652 5.87012 26.9287 5.84082 26.9873 5.84082C27.1729 5.86035 27.373 5.87988 27.5879 5.89941C27.8027 5.90918 28.0371 5.90918 28.291 5.89941C28.4766 5.88965 28.6523 5.875 28.8184 5.85547C28.9941 5.83594 29.165 5.81152 29.3311 5.78223C29.458 5.31348 29.5801 4.9082 29.6973 4.56641C29.8242 4.21484 29.9365 3.9707 30.0342 3.83398C30.0635 3.78516 30.127 3.74609 30.2246 3.7168C30.332 3.67773 30.4443 3.65332 30.5615 3.64355C30.6787 3.62402 30.791 3.62402 30.8984 3.64355C31.0059 3.65332 31.084 3.6875 31.1328 3.74609C31.1816 3.82422 31.2012 4.02441 31.1914 4.34668C31.1816 4.66895 31.1279 5.0791 31.0303 5.57715C31.4404 5.57715 31.8018 5.60156 32.1143 5.65039C32.4365 5.68945 32.71 5.73828 32.9346 5.79688C33.1592 5.8457 33.3398 5.89941 33.4766 5.95801C33.6133 6.00684 33.7158 6.04102 33.7842 6.06055C33.8525 6.08008 33.8867 6.12891 33.8867 6.20703C33.8965 6.28516 33.8818 6.36816 33.8428 6.45605C33.8135 6.53418 33.7598 6.60254 33.6816 6.66113C33.6035 6.71973 33.5156 6.73926 33.418 6.71973C33.3203 6.70996 33.208 6.69043 33.0811 6.66113C32.9639 6.63184 32.8174 6.60742 32.6416 6.58789C32.4756 6.56836 32.2754 6.54883 32.041 6.5293C31.8066 6.50977 31.5332 6.5 31.2207 6.5C31.1621 6.5 31.0938 6.50488 31.0156 6.51465C30.9473 6.51465 30.874 6.51465 30.7959 6.51465C30.7568 6.6709 30.7178 6.82715 30.6787 6.9834C30.6494 7.12988 30.6055 7.28613 30.5469 7.45215C30.4199 7.84277 30.2734 8.26758 30.1074 8.72656C29.9609 9.12695 29.7852 9.58594 29.5801 10.1035C29.375 10.6211 29.1455 11.1729 28.8916 11.7588C28.833 12.1787 28.8379 12.501 28.9062 12.7256C28.9844 12.9404 29.0771 13.0967 29.1846 13.1943C29.3115 13.3018 29.4678 13.3604 29.6533 13.3701C29.7998 13.3896 29.9756 13.3408 30.1807 13.2236C30.3955 13.0967 30.6152 12.9307 30.8398 12.7256C31.0645 12.5205 31.2891 12.2959 31.5137 12.0518C31.748 11.8076 31.9629 11.5684 32.1582 11.334C32.3535 11.0996 32.5244 10.8896 32.6709 10.7041C32.8174 10.5088 32.9199 10.3721 32.9785 10.2939ZM38.7354 10.9531C38.4424 11.3828 38.1104 11.8027 37.7393 12.2129C37.3682 12.6133 36.9727 12.9746 36.5527 13.2969C36.1426 13.6094 35.7178 13.8633 35.2783 14.0586C34.8486 14.2539 34.4287 14.3516 34.0186 14.3516C33.8037 14.3516 33.5693 14.2979 33.3154 14.1904C33.0713 14.0928 32.8467 13.9365 32.6416 13.7217C32.4365 13.5068 32.2705 13.2285 32.1436 12.8867C32.0264 12.5449 31.9922 12.1299 32.041 11.6416C32.0801 11.2412 32.2021 10.8213 32.4072 10.3818C32.6221 9.93262 32.8809 9.52246 33.1836 9.15137C33.4961 8.78027 33.8428 8.47266 34.2236 8.22852C34.6143 7.98438 35.0049 7.8623 35.3955 7.8623C35.7666 7.8623 36.0352 7.95508 36.2012 8.14062C36.3672 8.32617 36.4404 8.55566 36.4209 8.8291C36.3916 9.13184 36.3037 9.41016 36.1572 9.66406C36.0205 9.91797 35.8545 10.1475 35.6592 10.3525C35.4639 10.5576 35.2539 10.7432 35.0293 10.9092C34.8145 11.0752 34.6094 11.2266 34.4141 11.3633C34.1992 11.5098 33.9941 11.6514 33.7988 11.7881C33.6035 11.915 33.4326 12.0322 33.2861 12.1396C33.2959 12.3838 33.3398 12.5889 33.418 12.7549C33.4961 12.9209 33.5938 13.0576 33.7109 13.165C33.8281 13.2627 33.96 13.3359 34.1064 13.3848C34.2627 13.4238 34.4189 13.4434 34.5752 13.4434C34.9072 13.4434 35.2539 13.3408 35.6152 13.1357C35.9766 12.9209 36.3281 12.667 36.6699 12.374C37.0215 12.0713 37.3438 11.7588 37.6367 11.4365C37.9395 11.1143 38.1885 10.8359 38.3838 10.6016C38.4521 10.5234 38.5205 10.4795 38.5889 10.4697C38.667 10.4502 38.7256 10.46 38.7646 10.499C38.8135 10.5283 38.8379 10.5869 38.8379 10.6748C38.8379 10.7529 38.8037 10.8457 38.7354 10.9531ZM34.9854 8.69727C34.8682 8.69727 34.7266 8.75586 34.5605 8.87305C34.4043 8.99023 34.248 9.16113 34.0918 9.38574C33.9355 9.60059 33.7891 9.86914 33.6523 10.1914C33.5156 10.5039 33.4131 10.8652 33.3447 11.2754C33.4619 11.1875 33.5889 11.0996 33.7256 11.0117C33.8623 10.9141 33.999 10.8115 34.1357 10.7041C34.5557 10.3818 34.8486 10.0986 35.0146 9.85449C35.1807 9.61035 35.2734 9.40039 35.293 9.22461C35.3125 9.03906 35.293 8.90723 35.2344 8.8291C35.1758 8.74121 35.0928 8.69727 34.9854 8.69727ZM37.124 13.9268C37.0557 14.0342 36.9824 14.1025 36.9043 14.1318C36.8164 14.1709 36.7432 14.1758 36.6846 14.1465C36.6162 14.127 36.5723 14.0781 36.5527 14C36.5332 13.9219 36.5527 13.8242 36.6113 13.707C36.6406 13.6484 36.709 13.5166 36.8164 13.3115C36.9141 13.1064 37.0361 12.8623 37.1826 12.5791C37.3193 12.2861 37.4707 11.9736 37.6367 11.6416C37.8027 11.2998 37.959 10.9775 38.1055 10.6748C38.2617 10.3721 38.4033 10.1035 38.5303 9.86914C38.6572 9.625 38.75 9.44922 38.8086 9.3418C38.7012 9.24414 38.6279 9.17578 38.5889 9.13672C38.5498 9.08789 38.5205 8.99023 38.501 8.84375C38.4814 8.7168 38.5107 8.55078 38.5889 8.3457C38.667 8.14062 38.7695 7.94531 38.8965 7.75977C39.0234 7.56445 39.165 7.39844 39.3213 7.26172C39.4775 7.125 39.6289 7.05664 39.7754 7.05664C40.0488 7.05664 40.2393 7.14453 40.3467 7.32031C40.4639 7.49609 40.5322 7.67676 40.5518 7.8623C40.5713 7.98926 40.5615 8.15039 40.5225 8.3457C40.4834 8.54102 40.4102 8.7168 40.3027 8.87305C40.332 8.89258 40.3711 8.91699 40.4199 8.94629C40.4688 8.96582 40.5469 8.97559 40.6543 8.97559C40.8105 8.97559 40.918 8.96582 40.9766 8.94629C41.0449 8.92676 41.1475 8.91699 41.2842 8.91699C41.4502 8.91699 41.5869 8.96094 41.6943 9.04883C41.8018 9.12695 41.8896 9.22949 41.958 9.35645C42.0264 9.47363 42.0752 9.60547 42.1045 9.75195C42.1436 9.88867 42.168 10.0156 42.1777 10.1328C42.207 10.377 42.1436 10.6309 41.9873 10.8945C41.8311 11.1582 41.6406 11.4463 41.416 11.7588C41.2793 11.9541 41.1426 12.1738 41.0059 12.418C40.8691 12.6621 40.8105 12.8818 40.8301 13.0771C40.8496 13.2041 40.8838 13.3066 40.9326 13.3848C40.9814 13.4629 41.1182 13.502 41.3428 13.502C41.5088 13.502 41.6895 13.4434 41.8848 13.3262C42.0898 13.1992 42.2949 13.043 42.5 12.8574C42.7148 12.6621 42.9248 12.4521 43.1299 12.2275C43.335 11.9932 43.5254 11.7686 43.7012 11.5537C43.877 11.3291 44.0234 11.1289 44.1406 10.9531C44.2676 10.7773 44.3604 10.6504 44.4189 10.5723C44.4678 10.4941 44.5312 10.4404 44.6094 10.4111C44.6875 10.3818 44.7559 10.3818 44.8145 10.4111C44.873 10.4404 44.9072 10.499 44.917 10.5869C44.9365 10.6748 44.9023 10.792 44.8145 10.9385C44.7559 11.0361 44.6533 11.1924 44.5068 11.4072C44.3701 11.6221 44.1992 11.8613 43.9941 12.125C43.7988 12.3887 43.5791 12.6621 43.335 12.9453C43.0908 13.2188 42.832 13.4727 42.5586 13.707C42.2949 13.9316 42.0264 14.1172 41.7529 14.2637C41.4893 14.4102 41.2354 14.4834 40.9912 14.4834C40.7373 14.4834 40.5273 14.4346 40.3613 14.3369C40.1953 14.2393 40.0586 14.1221 39.9512 13.9854C39.8535 13.8389 39.7803 13.6826 39.7314 13.5166C39.6924 13.3408 39.6777 13.1797 39.6875 13.0332C39.6973 12.916 39.7266 12.7939 39.7754 12.667C39.834 12.5303 39.8975 12.3936 39.9658 12.2568C40.0439 12.1104 40.1221 11.9688 40.2002 11.832C40.2881 11.6855 40.3662 11.5439 40.4346 11.4072C40.6006 11.124 40.7324 10.8848 40.8301 10.6895C40.9375 10.4844 40.9912 10.3135 40.9912 10.1768C40.9912 10.0889 40.9717 10.0107 40.9326 9.94238C40.8936 9.87402 40.8301 9.83984 40.7422 9.83984C40.6836 9.83984 40.6396 9.84473 40.6104 9.85449C40.5908 9.85449 40.5664 9.85449 40.5371 9.85449C40.5176 9.85449 40.4834 9.85938 40.4346 9.86914C40.3955 9.86914 40.332 9.86914 40.2441 9.86914C40.1172 9.86914 40.0098 9.84961 39.9219 9.81055C39.834 9.77148 39.751 9.74219 39.6729 9.72266C39.6338 9.79102 39.5459 9.9375 39.4092 10.1621C39.2725 10.3867 39.1113 10.6504 38.9258 10.9531C38.75 11.2559 38.5596 11.5732 38.3545 11.9053C38.1592 12.2373 37.9736 12.5498 37.7979 12.8428C37.6221 13.126 37.4756 13.3701 37.3584 13.5752C37.2314 13.7705 37.1533 13.8877 37.124 13.9268ZM47.627 8.60938C47.7539 8.51172 47.876 8.43848 47.9932 8.38965C48.1201 8.33105 48.2324 8.29199 48.3301 8.27246C48.4375 8.24316 48.5449 8.2334 48.6523 8.24316C48.916 8.2627 49.0771 8.3457 49.1357 8.49219C49.2041 8.63867 49.2139 8.87305 49.165 9.19531C49.1357 9.36133 49.0771 9.57129 48.9893 9.8252C48.9014 10.0791 48.7988 10.3916 48.6816 10.7627C48.5645 11.124 48.4375 11.5391 48.3008 12.0078C48.1738 12.4766 48.0518 13.0039 47.9346 13.5898C47.8174 14.0684 47.6904 14.6201 47.5537 15.2451C47.4365 15.792 47.2949 16.4512 47.1289 17.2227C46.9727 17.9941 46.8018 18.8779 46.6162 19.874C46.5674 20.1182 46.46 20.2598 46.2939 20.2988C46.1377 20.3379 45.9717 20.3184 45.7959 20.2402C45.7275 20.2012 45.6641 20.1572 45.6055 20.1084C45.5566 20.0596 45.5029 20.001 45.4443 19.9326C45.3857 19.874 45.3369 19.791 45.2979 19.6836C45.5225 18.8633 45.7178 18.1162 45.8838 17.4424C46.0596 16.7686 46.2158 16.1826 46.3525 15.6846C46.499 15.1084 46.6357 14.5908 46.7627 14.1318C46.8115 13.9268 46.8555 13.7266 46.8945 13.5312C46.9434 13.3262 46.9922 13.126 47.041 12.9307C46.9141 13.1357 46.7773 13.3311 46.6309 13.5166C46.4844 13.7021 46.3232 13.8633 46.1475 14C45.9717 14.1367 45.7812 14.2393 45.5762 14.3076C45.3809 14.3857 45.1758 14.4102 44.9609 14.3809C44.4336 14.3125 44.0576 14.1172 43.833 13.7949C43.6182 13.4727 43.5254 13.0527 43.5547 12.5352C43.5645 12.3301 43.5938 12.1055 43.6426 11.8613C43.6914 11.6172 43.7451 11.3828 43.8037 11.1582C43.8623 10.9336 43.916 10.7334 43.9648 10.5576C44.0234 10.3721 44.0674 10.2402 44.0967 10.1621C44.2139 9.79102 44.2969 9.47363 44.3457 9.20996C44.4043 8.94629 44.3652 8.72656 44.2285 8.55078C44.3652 8.46289 44.4922 8.4043 44.6094 8.375C44.7363 8.33594 44.8486 8.30664 44.9463 8.28711C45.0537 8.27734 45.1611 8.27734 45.2686 8.28711C45.5322 8.32617 45.6836 8.42383 45.7227 8.58008C45.7715 8.73633 45.7568 8.9707 45.6787 9.2832C45.6396 9.44922 45.5762 9.66406 45.4883 9.92773C45.4004 10.1816 45.3076 10.4453 45.21 10.7188C45.1123 10.9922 45.0244 11.2461 44.9463 11.4805C44.8682 11.7051 44.8242 11.8662 44.8145 11.9639C44.7266 12.4033 44.7217 12.7451 44.7998 12.9893C44.8779 13.2236 45.0488 13.3408 45.3125 13.3408C45.4395 13.3408 45.5811 13.2871 45.7373 13.1797C45.8936 13.0625 46.0498 12.9111 46.2061 12.7256C46.3721 12.54 46.5332 12.3301 46.6895 12.0957C46.8457 11.8516 46.9873 11.6074 47.1143 11.3633C47.251 11.1191 47.3682 10.8799 47.4658 10.6455C47.5732 10.4111 47.6514 10.2012 47.7002 10.0156C47.7686 9.6543 47.8125 9.37109 47.832 9.16602C47.8516 8.96094 47.7832 8.77539 47.627 8.60938Z" fill="white"/>
<path d="M55.312 15.144C55.0667 15.144 54.8213 15.1173 54.576 15.064C54.3307 15.0213 54.0907 14.9093 53.856 14.728C53.632 14.5467 53.4293 14.2693 53.248 13.896C53.0667 13.5227 52.9227 13.0213 52.816 12.392C52.7093 11.752 52.656 10.9413 52.656 9.96C52.656 8.81867 52.7147 7.86933 52.832 7.112C52.96 6.344 53.1253 5.73067 53.328 5.272C53.5413 4.81333 53.7813 4.46667 54.048 4.232C54.3147 3.99733 54.592 3.84267 54.88 3.768C55.1787 3.69333 55.4667 3.656 55.744 3.656C56.0853 3.656 56.3627 3.69867 56.576 3.784C56.8 3.86933 56.9653 3.976 57.072 4.104C57.1787 4.22133 57.232 4.33333 57.232 4.44C57.232 4.52533 57.216 4.61067 57.184 4.696C57.1627 4.78133 57.1307 4.84533 57.088 4.888C57.0453 4.84533 56.9653 4.78667 56.848 4.712C56.7307 4.62667 56.5813 4.54667 56.4 4.472C56.2293 4.39733 56.0373 4.36 55.824 4.36C55.5893 4.36 55.3547 4.39733 55.12 4.472C54.896 4.536 54.6827 4.67467 54.48 4.888C54.2773 5.10133 54.096 5.416 53.936 5.832C53.776 6.23733 53.648 6.78133 53.552 7.464C53.4667 8.136 53.424 8.97867 53.424 9.992C53.424 10.9413 53.4773 11.7093 53.584 12.296C53.7013 12.872 53.856 13.3093 54.048 13.608C54.24 13.9067 54.4533 14.1093 54.688 14.216C54.9333 14.312 55.1787 14.36 55.424 14.36C55.808 14.36 56.16 14.2747 56.48 14.104C56.8 13.9227 57.0293 13.7467 57.168 13.576C57.2 13.64 57.232 13.7147 57.264 13.8C57.296 13.8747 57.312 13.96 57.312 14.056C57.312 14.1947 57.2213 14.3547 57.04 14.536C56.8693 14.7067 56.6347 14.8507 56.336 14.968C56.0373 15.0853 55.696 15.144 55.312 15.144ZM60.5248 15.16C60.1514 15.16 59.8101 15.112 59.5008 15.016C59.1914 14.92 58.9248 14.7333 58.7008 14.456C58.4874 14.168 58.3221 13.752 58.2048 13.208C58.0874 12.6533 58.0288 11.9227 58.0288 11.016C58.0288 9.53333 58.2688 8.46667 58.7488 7.816C59.2288 7.16533 59.8794 6.84 60.7008 6.84C61.2554 6.84 61.7141 6.96267 62.0768 7.208C62.4394 7.44267 62.7114 7.864 62.8928 8.472C63.0741 9.06933 63.1648 9.912 63.1648 11C63.1648 12.4293 62.9354 13.48 62.4768 14.152C62.0288 14.824 61.3781 15.16 60.5248 15.16ZM60.5408 14.52C60.9248 14.52 61.2554 14.3973 61.5328 14.152C61.8101 13.9067 62.0234 13.528 62.1727 13.016C62.3328 12.4933 62.4128 11.8107 62.4128 10.968C62.4128 10.0187 62.3434 9.29333 62.2048 8.792C62.0661 8.29067 61.8688 7.94933 61.6128 7.768C61.3568 7.576 61.0421 7.48 60.6688 7.48C60.2954 7.48 59.9648 7.592 59.6768 7.816C59.3994 8.04 59.1808 8.41333 59.0208 8.936C58.8714 9.45867 58.7968 10.1787 58.7968 11.096C58.7968 11.8 58.8341 12.376 58.9088 12.824C58.9941 13.272 59.1061 13.6187 59.2448 13.864C59.3941 14.1093 59.5808 14.28 59.8048 14.376C60.0288 14.472 60.2741 14.52 60.5408 14.52ZM64.6784 15V7.544C65.0304 7.29867 65.3877 7.12267 65.7504 7.016C66.113 6.89867 66.465 6.84 66.8064 6.84C67.1904 6.84 67.4784 6.888 67.6704 6.984C67.873 7.08 67.9744 7.20267 67.9744 7.352C67.9744 7.416 67.9637 7.49067 67.9424 7.576C67.921 7.66133 67.8944 7.736 67.8624 7.8C67.745 7.736 67.6064 7.67733 67.4464 7.624C67.2864 7.57067 67.105 7.544 66.9024 7.544C66.625 7.544 66.3584 7.58667 66.1024 7.672C65.8464 7.74667 65.617 7.864 65.4144 8.024L65.3984 14.808C65.3984 14.872 65.3877 14.92 65.3664 14.952C65.345 14.9733 65.281 14.9893 65.1744 15C65.0784 15 64.913 15 64.6784 15ZM69.1471 15V7.4C69.4031 7.29333 69.6751 7.19733 69.9631 7.112C70.2511 7.02667 70.5445 6.96267 70.8431 6.92C71.1418 6.86667 71.4458 6.84 71.7551 6.84C72.3311 6.84 72.7791 6.92533 73.0991 7.096C73.4191 7.256 73.6378 7.50133 73.7551 7.832C73.8725 8.152 73.9311 8.56267 73.9311 9.064V14.808C73.9311 14.872 73.9205 14.92 73.8991 14.952C73.8778 14.9733 73.8138 14.9893 73.7071 15C73.6111 15 73.4405 15 73.1951 15V9.24C73.1951 8.64267 73.1045 8.20533 72.9231 7.928C72.7418 7.64 72.3471 7.496 71.7391 7.496C71.4831 7.496 71.1738 7.528 70.8111 7.592C70.4485 7.656 70.1338 7.75733 69.8671 7.896V14.808C69.8671 14.872 69.8565 14.92 69.8351 14.952C69.8138 14.9733 69.7498 14.9893 69.6431 15C69.5471 15 69.3818 15 69.1471 15ZM78.171 15.16C77.7977 15.16 77.4457 15.1173 77.115 15.032C76.795 14.9467 76.5123 14.776 76.267 14.52C76.0323 14.264 75.851 13.8907 75.723 13.4C75.595 12.8987 75.531 12.248 75.531 11.448C75.531 10.4133 75.6163 9.58667 75.787 8.968C75.9577 8.34933 76.1817 7.89067 76.459 7.592C76.747 7.28267 77.0563 7.08 77.387 6.984C77.7283 6.888 78.0643 6.84 78.395 6.84C79.099 6.84 79.6057 7.06933 79.915 7.528C80.235 7.976 80.395 8.58933 80.395 9.368C80.395 9.688 80.3843 10.0133 80.363 10.344C80.3523 10.664 80.3203 10.9573 80.267 11.224C79.819 11.3093 79.3497 11.3733 78.859 11.416C78.3683 11.4587 77.9043 11.4853 77.467 11.496C77.0403 11.5067 76.6883 11.512 76.411 11.512C76.1443 11.5013 76.011 11.496 76.011 11.496V10.872C76.011 10.872 76.139 10.8773 76.395 10.888C76.651 10.888 76.9657 10.8827 77.339 10.872C77.723 10.8613 78.1177 10.84 78.523 10.808C78.939 10.776 79.307 10.7227 79.627 10.648C79.6483 10.4453 79.6643 10.2533 79.675 10.072C79.6857 9.89067 79.691 9.71467 79.691 9.544C79.6803 8.88267 79.5843 8.376 79.403 8.024C79.2217 7.672 78.8697 7.496 78.347 7.496C78.1123 7.496 77.8723 7.53867 77.627 7.624C77.3923 7.69867 77.1683 7.86933 76.955 8.136C76.7417 8.392 76.571 8.78667 76.443 9.32C76.3257 9.84267 76.267 10.5573 76.267 11.464C76.267 12.1253 76.3097 12.6533 76.395 13.048C76.491 13.4427 76.6297 13.7413 76.811 13.944C76.9923 14.1467 77.2057 14.2853 77.451 14.36C77.6963 14.424 77.9683 14.456 78.267 14.456C78.6403 14.456 78.9977 14.408 79.339 14.312C79.691 14.216 79.9897 14.0773 80.235 13.896C80.267 13.9813 80.2883 14.072 80.299 14.168C80.3203 14.264 80.331 14.344 80.331 14.408C80.331 14.5147 80.2297 14.6267 80.027 14.744C79.8243 14.8613 79.5577 14.9573 79.227 15.032C78.907 15.1173 78.555 15.16 78.171 15.16ZM81.8815 15V7.544C82.2335 7.29867 82.5908 7.12267 82.9535 7.016C83.3162 6.89867 83.6682 6.84 84.0095 6.84C84.3935 6.84 84.6815 6.888 84.8735 6.984C85.0762 7.08 85.1775 7.20267 85.1775 7.352C85.1775 7.416 85.1668 7.49067 85.1455 7.576C85.1242 7.66133 85.0975 7.736 85.0655 7.8C84.9482 7.736 84.8095 7.67733 84.6495 7.624C84.4895 7.57067 84.3082 7.544 84.1055 7.544C83.8282 7.544 83.5615 7.58667 83.3055 7.672C83.0495 7.74667 82.8202 7.864 82.6175 8.024L82.6015 14.808C82.6015 14.872 82.5908 14.92 82.5695 14.952C82.5482 14.9733 82.4842 14.9893 82.3775 15C82.2815 15 82.1162 15 81.8815 15Z" fill="white"/>
</g>
<defs>
<filter id="filter0_d_102_9" x="0.970703" y="2.92578" width="88.2068" height="25.5518" filterUnits="userSpaceOnUse" color-interpolation-filters="sRGB">
<feFlood flood-opacity="0" result="BackgroundImageFix"/>
<feColorMatrix in="SourceAlpha" type="matrix" values="0 0 0 0 0 0 0 0 0 0 0 0 0 0 0 0 0 0 127 0" result="hardAlpha"/>
<feOffset dy="4"/>
<feGaussianBlur stdDeviation="2"/>
<feComposite in2="hardAlpha" operator="out"/>
<feColorMatrix type="matrix" values="0 0 0 0 0 0 0 0 0 0 0 0 0 0 0 0 0 0 0.38 0"/>
<feBlend mode="normal" in2="BackgroundImageFix" result="effect1_dropShadow_102_9"/>
<feBlend mode="normal" in="SourceGraphic" in2="effect1_dropShadow_102_9" result="shape"/>
</filter>
</defs>
</svg>
