<svg width="163" height="49" viewBox="0 0 163 49" fill="none" xmlns="http://www.w3.org/2000/svg">
<g filter="url(#filter0_d_103_2)">
<g filter="url(#filter1_d_103_2)">
<path d="M9 39C58.8 24.5112 85.0833 32.963 92 39" stroke="#9325C7"/>
</g>
<path d="M11.2988 33.4492C10.3223 33.4492 9.43359 33.2148 8.63281 32.7461C7.85156 32.2773 7.17773 31.6328 6.61133 30.8125C6.06445 29.9922 5.64453 29.0352 5.35156 27.9414C5.07812 26.8281 4.96094 25.6465 5 24.3965C5.03906 23.2246 5.18555 21.9551 5.43945 20.5879C5.71289 19.2207 6.09375 17.8535 6.58203 16.4863C7.07031 15.0996 7.65625 13.7715 8.33984 12.502C9.04297 11.2129 9.84375 10.0801 10.7422 9.10352C11.6406 8.12695 12.6367 7.3457 13.7305 6.75977C14.8242 6.1543 16.0254 5.85156 17.334 5.85156C18.1348 5.85156 18.8086 6.01758 19.3555 6.34961C19.9219 6.66211 20.3711 7.08203 20.7031 7.60938C21.0547 8.13672 21.2988 8.73242 21.4355 9.39648C21.5723 10.0605 21.6309 10.7344 21.6113 11.418C21.5723 12.0625 21.4746 12.6875 21.3184 13.293C21.1816 13.8984 20.9766 14.4453 20.7031 14.9336C20.4492 15.4023 20.127 15.7832 19.7363 16.0762C19.3652 16.3496 18.9355 16.4863 18.4473 16.4863C18.2129 16.4668 17.9883 16.3887 17.7734 16.252C17.5781 16.1348 17.373 15.959 17.1582 15.7246C16.9629 15.4902 16.7773 15.1484 16.6016 14.6992C17.1289 14.4844 17.5391 14.1133 17.832 13.5859C18.1445 13.0391 18.3789 12.4727 18.5352 11.8867C18.7109 11.2227 18.8281 10.4805 18.8867 9.66016C18.9258 8.85937 18.7598 8.27344 18.3887 7.90234C18.0176 7.53125 17.5977 7.3457 17.1289 7.3457C16.2109 7.3457 15.2441 7.82422 14.2285 8.78125C13.2129 9.73828 12.2656 11.0371 11.3867 12.6777C10.5273 14.2988 9.79492 16.1934 9.18945 18.3613C8.60352 20.5293 8.26172 22.8242 8.16406 25.2461C8.125 26.3398 8.19336 27.2676 8.36914 28.0293C8.56445 28.791 8.82812 29.416 9.16016 29.9043C9.51172 30.3926 9.90234 30.7441 10.332 30.959C10.7617 31.1738 11.1914 31.2812 11.6211 31.2812C12.3047 31.2812 12.9492 31.1348 13.5547 30.8418C14.1602 30.5488 14.707 30.1875 15.1953 29.7578C15.7031 29.3281 16.1328 28.8789 16.4844 28.4102C16.8555 27.9609 17.1387 27.5605 17.334 27.209C17.4707 26.9551 17.6172 26.7988 17.7734 26.7402C17.9297 26.6816 18.0664 26.7012 18.1836 26.7988C18.3008 26.877 18.3789 27.0137 18.418 27.209C18.457 27.3848 18.418 27.5996 18.3008 27.8535C17.9688 28.5176 17.5586 29.1816 17.0703 29.8457C16.6016 30.5098 16.0645 31.1055 15.459 31.6328C14.873 32.1797 14.2285 32.6191 13.5254 32.9512C12.8223 33.2832 12.0801 33.4492 11.2988 33.4492ZM21.0254 27.5312C21.8848 23.918 22.5684 21.0176 23.0762 18.8301C23.6035 16.6426 24.0039 14.9727 24.2773 13.8203C24.5898 12.4531 24.8047 11.5059 24.9219 10.9785C24.9805 10.6074 25.0293 10.2461 25.0684 9.89453C25.1074 9.58203 25.127 9.25977 25.127 8.92773C25.127 8.5957 25.0977 8.29297 25.0391 8.01953C25.1953 7.92187 25.3613 7.84375 25.5371 7.78516C25.7324 7.72656 25.918 7.67773 26.0938 7.63867C26.3086 7.58008 26.5234 7.53125 26.7383 7.49219C26.9531 7.45312 27.1484 7.43359 27.3242 7.43359C27.4805 7.43359 27.627 7.45312 27.7637 7.49219C27.9004 7.51172 27.9883 7.57031 28.0273 7.66797C28.1445 7.76563 28.1934 7.96094 28.1738 8.25391C28.1738 8.54688 28.1543 8.84961 28.1152 9.16211C28.0371 9.5332 27.9492 9.93359 27.8516 10.3633C27.6172 11.2031 27.2949 12.4141 26.8848 13.9961C26.5332 15.3438 26.0547 17.1797 25.4492 19.5039C24.8633 21.8281 24.1211 24.7578 23.2227 28.293C23.125 28.3906 23.0078 28.459 22.8711 28.498C22.7344 28.5371 22.6074 28.5566 22.4902 28.5566C22.3535 28.5566 22.207 28.5469 22.0508 28.5273C21.9141 28.4883 21.7773 28.4297 21.6406 28.3516C21.5234 28.2734 21.4062 28.166 21.2891 28.0293C21.1719 27.9121 21.084 27.7461 21.0254 27.5312ZM43.0566 22.1699C42.7832 22.5605 42.4316 23.0488 42.002 23.6348C41.5723 24.2012 41.123 24.7773 40.6543 25.3633C40.2051 25.9297 39.7559 26.457 39.3066 26.9453C38.877 27.4141 38.5156 27.7461 38.2227 27.9414C38.0273 28.0586 37.8027 28.1562 37.5488 28.2344C37.2949 28.3125 37.0312 28.3613 36.7578 28.3809C36.5039 28.4004 36.2598 28.3809 36.0254 28.3223C35.791 28.2832 35.5859 28.2051 35.4102 28.0879C35.2344 27.9512 35.0879 27.7559 34.9707 27.502C34.873 27.2871 34.7754 27.0039 34.6777 26.6523C34.5996 26.3008 34.5703 25.8613 34.5898 25.334C34.1211 26.1152 33.6035 26.7207 33.0371 27.1504C32.4707 27.5605 31.9336 27.8633 31.4258 28.0586C30.8398 28.2734 30.2539 28.4004 29.668 28.4395C29.3945 28.4395 29.1016 28.3418 28.7891 28.1465C28.4766 27.9707 28.2129 27.6875 27.998 27.2969C27.7832 26.8867 27.6465 26.3691 27.5879 25.7441C27.5293 25.0996 27.6074 24.3379 27.8223 23.459C28.0957 22.2676 28.5254 21.1836 29.1113 20.207C29.7168 19.2305 30.3711 18.4004 31.0742 17.7168C31.7773 17.0137 32.4707 16.4863 33.1543 16.1348C33.8379 15.7832 34.4043 15.627 34.8535 15.666C35.3809 15.7637 35.8105 15.9199 36.1426 16.1348C36.416 16.3301 36.5918 16.623 36.6699 17.0137C36.7676 17.3848 36.6113 17.8828 36.2012 18.5078C36.4746 18.4492 36.6992 18.4102 36.875 18.3906C37.0703 18.3711 37.2168 18.3613 37.3145 18.3613C37.4316 18.3613 37.5098 18.3711 37.5488 18.3906C37.5684 18.4297 37.5781 18.5176 37.5781 18.6543C37.5781 18.7715 37.5488 18.9961 37.4902 19.3281C37.4316 19.6602 37.3438 20.1094 37.2266 20.6758C37.1094 21.2422 36.9531 21.9746 36.7578 22.873C36.7188 23.0488 36.6797 23.2148 36.6406 23.3711C36.6211 23.5078 36.5918 23.6543 36.5527 23.8105C36.5332 23.9473 36.5039 24.1133 36.4648 24.3086C36.4258 24.5039 36.377 24.748 36.3184 25.041C36.2988 25.2168 36.2891 25.4121 36.2891 25.627C36.3086 25.8223 36.3477 26.0078 36.4062 26.1836C36.4648 26.3594 36.5527 26.5059 36.6699 26.623C36.8066 26.7207 36.9922 26.7695 37.2266 26.7695C37.4219 26.7695 37.6758 26.6523 37.9883 26.418C38.3008 26.1641 38.6328 25.8516 38.9844 25.4805C39.3359 25.0898 39.6973 24.6699 40.0684 24.2207C40.459 23.752 40.8203 23.3027 41.1523 22.873C41.4844 22.4434 41.7773 22.0625 42.0312 21.7305C42.3047 21.3984 42.5 21.1543 42.6172 20.998C42.7734 20.8223 42.9297 20.7246 43.0859 20.7051C43.2422 20.666 43.3594 20.7051 43.4375 20.8223C43.5156 20.9395 43.5254 21.1152 43.4668 21.3496C43.4277 21.584 43.291 21.8574 43.0566 22.1699ZM34.4727 23.459C34.5703 23.0684 34.6875 22.6094 34.8242 22.082C34.9609 21.5547 35.0781 21.0469 35.1758 20.5586C35.2734 20.0703 35.3418 19.6699 35.3809 19.3574C35.4395 19.0254 35.4297 18.8691 35.3516 18.8887C35.2539 18.9082 35.1465 18.9375 35.0293 18.9766C34.9316 19.0156 34.8047 19.0449 34.6484 19.0645C34.4922 19.084 34.3359 19.1133 34.1797 19.1523C34.3359 18.8398 34.4238 18.5859 34.4434 18.3906C34.4824 18.1758 34.4922 18.0098 34.4727 17.8926C34.4531 17.7559 34.4141 17.6484 34.3555 17.5703C34.1406 17.3945 33.7598 17.541 33.2129 18.0098C32.6855 18.459 32.0703 19.2988 31.3672 20.5293C31.0742 21.0371 30.8398 21.584 30.6641 22.1699C30.4883 22.7363 30.3613 23.2734 30.2832 23.7812C30.2246 24.2891 30.2148 24.7383 30.2539 25.1289C30.293 25.5 30.3711 25.7441 30.4883 25.8613C30.7031 26.0762 30.9473 26.1836 31.2207 26.1836C31.4941 26.1641 31.7676 26.0859 32.041 25.9492C32.334 25.793 32.6172 25.5977 32.8906 25.3633C33.1836 25.1289 33.4375 24.8848 33.6523 24.6309C33.8867 24.377 34.0723 24.1426 34.209 23.9277C34.3652 23.7129 34.4531 23.5566 34.4727 23.459ZM51.9043 20.5879C51.9824 20.4707 52.0801 20.4023 52.1973 20.3828C52.334 20.3438 52.4414 20.3535 52.5195 20.4121C52.5977 20.4707 52.6367 20.5684 52.6367 20.7051C52.6562 20.8418 52.6074 21.0273 52.4902 21.2617C52.0996 22.0039 51.582 22.8047 50.9375 23.6641C50.3125 24.5234 49.6484 25.334 48.9453 26.0957C48.2422 26.8379 47.5586 27.4531 46.8945 27.9414C46.2305 28.4297 45.6738 28.6738 45.2246 28.6738C44.5801 28.6738 44.043 28.5469 43.6133 28.293C43.1836 28.0391 42.8418 27.7266 42.5879 27.3555C42.3535 26.9844 42.1875 26.584 42.0898 26.1543C41.9922 25.7051 41.9629 25.2949 42.002 24.9238C42.0215 24.6113 42.0898 24.0547 42.207 23.2539C42.3242 22.4336 42.4805 21.4961 42.6758 20.4414C42.8711 19.3672 43.0859 18.2246 43.3203 17.0137C43.5742 15.7832 43.8379 14.6016 44.1113 13.4688C43.7793 13.5078 43.4473 13.5469 43.1152 13.5859C42.7832 13.625 42.4805 13.6445 42.207 13.6445C41.582 13.6445 40.9961 13.5762 40.4492 13.4395C39.8828 13.2832 39.4629 13.1367 39.1895 13C39.0332 12.9219 38.9648 12.8145 38.9844 12.6777C39.0039 12.5215 39.0625 12.375 39.1602 12.2383C39.2578 12.082 39.3848 11.9551 39.541 11.8574C39.6777 11.7402 39.8047 11.6816 39.9219 11.6816C40.293 11.7207 40.6934 11.7598 41.123 11.7988C41.5527 11.8184 42.0215 11.8184 42.5293 11.7988C42.9004 11.7793 43.252 11.75 43.584 11.7109C43.9355 11.6719 44.2773 11.623 44.6094 11.5645C44.8633 10.627 45.1074 9.81641 45.3418 9.13281C45.5957 8.42969 45.8203 7.94141 46.0156 7.66797C46.0742 7.57031 46.2012 7.49219 46.3965 7.43359C46.6113 7.35547 46.8359 7.30664 47.0703 7.28711C47.3047 7.24805 47.5293 7.24805 47.7441 7.28711C47.959 7.30664 48.1152 7.375 48.2129 7.49219C48.3105 7.64844 48.3496 8.04883 48.3301 8.69336C48.3105 9.33789 48.2031 10.1582 48.0078 11.1543C48.8281 11.1543 49.5508 11.2031 50.1758 11.3008C50.8203 11.3789 51.3672 11.4766 51.8164 11.5938C52.2656 11.6914 52.627 11.7988 52.9004 11.916C53.1738 12.0137 53.3789 12.082 53.5156 12.1211C53.6523 12.1602 53.7207 12.2578 53.7207 12.4141C53.7402 12.5703 53.7109 12.7363 53.6328 12.9121C53.5742 13.0684 53.4668 13.2051 53.3105 13.3223C53.1543 13.4395 52.9785 13.4785 52.7832 13.4395C52.5879 13.4199 52.3633 13.3809 52.1094 13.3223C51.875 13.2637 51.582 13.2148 51.2305 13.1758C50.8984 13.1367 50.498 13.0977 50.0293 13.0586C49.5605 13.0195 49.0137 13 48.3887 13C48.2715 13 48.1348 13.0098 47.9785 13.0293C47.8418 13.0293 47.6953 13.0293 47.5391 13.0293C47.4609 13.3418 47.3828 13.6543 47.3047 13.9668C47.2461 14.2598 47.1582 14.5723 47.041 14.9043C46.7871 15.6855 46.4941 16.5352 46.1621 17.4531C45.8691 18.2539 45.5176 19.1719 45.1074 20.207C44.6973 21.2422 44.2383 22.3457 43.7305 23.5176C43.6133 24.3574 43.623 25.002 43.7598 25.4512C43.916 25.8809 44.1016 26.1934 44.3164 26.3887C44.5703 26.6035 44.8828 26.7207 45.2539 26.7402C45.5469 26.7793 45.8984 26.6816 46.3086 26.4473C46.7383 26.1934 47.1777 25.8613 47.627 25.4512C48.0762 25.041 48.5254 24.5918 48.9746 24.1035C49.4434 23.6152 49.873 23.1367 50.2637 22.668C50.6543 22.1992 50.9961 21.7793 51.2891 21.4082C51.582 21.0176 51.7871 20.7441 51.9043 20.5879ZM60.957 20.5879C61.0352 20.4707 61.1328 20.4023 61.25 20.3828C61.3867 20.3438 61.4941 20.3535 61.5723 20.4121C61.6504 20.4707 61.6895 20.5684 61.6895 20.7051C61.709 20.8418 61.6602 21.0273 61.543 21.2617C61.1523 22.0039 60.6348 22.8047 59.9902 23.6641C59.3652 24.5234 58.7012 25.334 57.998 26.0957C57.2949 26.8379 56.6113 27.4531 55.9473 27.9414C55.2832 28.4297 54.7266 28.6738 54.2773 28.6738C53.6328 28.6738 53.0957 28.5469 52.666 28.293C52.2363 28.0391 51.8945 27.7266 51.6406 27.3555C51.4062 26.9844 51.2402 26.584 51.1426 26.1543C51.0449 25.7051 51.0156 25.2949 51.0547 24.9238C51.0742 24.6113 51.1426 24.0547 51.2598 23.2539C51.377 22.4336 51.5332 21.4961 51.7285 20.4414C51.9238 19.3672 52.1387 18.2246 52.373 17.0137C52.627 15.7832 52.8906 14.6016 53.1641 13.4688C52.832 13.5078 52.5 13.5469 52.168 13.5859C51.8359 13.625 51.5332 13.6445 51.2598 13.6445C50.6348 13.6445 50.0488 13.5762 49.502 13.4395C48.9355 13.2832 48.5156 13.1367 48.2422 13C48.0859 12.9219 48.0176 12.8145 48.0371 12.6777C48.0566 12.5215 48.1152 12.375 48.2129 12.2383C48.3105 12.082 48.4375 11.9551 48.5938 11.8574C48.7305 11.7402 48.8574 11.6816 48.9746 11.6816C49.3457 11.7207 49.7461 11.7598 50.1758 11.7988C50.6055 11.8184 51.0742 11.8184 51.582 11.7988C51.9531 11.7793 52.3047 11.75 52.6367 11.7109C52.9883 11.6719 53.3301 11.623 53.6621 11.5645C53.916 10.627 54.1602 9.81641 54.3945 9.13281C54.6484 8.42969 54.873 7.94141 55.0684 7.66797C55.127 7.57031 55.2539 7.49219 55.4492 7.43359C55.6641 7.35547 55.8887 7.30664 56.123 7.28711C56.3574 7.24805 56.582 7.24805 56.7969 7.28711C57.0117 7.30664 57.168 7.375 57.2656 7.49219C57.3633 7.64844 57.4023 8.04883 57.3828 8.69336C57.3633 9.33789 57.2559 10.1582 57.0605 11.1543C57.8809 11.1543 58.6035 11.2031 59.2285 11.3008C59.873 11.3789 60.4199 11.4766 60.8691 11.5938C61.3184 11.6914 61.6797 11.7988 61.9531 11.916C62.2266 12.0137 62.4316 12.082 62.5684 12.1211C62.7051 12.1602 62.7734 12.2578 62.7734 12.4141C62.793 12.5703 62.7637 12.7363 62.6855 12.9121C62.627 13.0684 62.5195 13.2051 62.3633 13.3223C62.207 13.4395 62.0312 13.4785 61.8359 13.4395C61.6406 13.4199 61.416 13.3809 61.1621 13.3223C60.9277 13.2637 60.6348 13.2148 60.2832 13.1758C59.9512 13.1367 59.5508 13.0977 59.082 13.0586C58.6133 13.0195 58.0664 13 57.4414 13C57.3242 13 57.1875 13.0098 57.0312 13.0293C56.8945 13.0293 56.748 13.0293 56.5918 13.0293C56.5137 13.3418 56.4355 13.6543 56.3574 13.9668C56.2988 14.2598 56.2109 14.5723 56.0938 14.9043C55.8398 15.6855 55.5469 16.5352 55.2148 17.4531C54.9219 18.2539 54.5703 19.1719 54.1602 20.207C53.75 21.2422 53.291 22.3457 52.7832 23.5176C52.666 24.3574 52.6758 25.002 52.8125 25.4512C52.9688 25.8809 53.1543 26.1934 53.3691 26.3887C53.623 26.6035 53.9355 26.7207 54.3066 26.7402C54.5996 26.7793 54.9512 26.6816 55.3613 26.4473C55.791 26.1934 56.2305 25.8613 56.6797 25.4512C57.1289 25.041 57.5781 24.5918 58.0273 24.1035C58.4961 23.6152 58.9258 23.1367 59.3164 22.668C59.707 22.1992 60.0488 21.7793 60.3418 21.4082C60.6348 21.0176 60.8398 20.7441 60.957 20.5879ZM72.4707 21.9062C71.8848 22.7656 71.2207 23.6055 70.4785 24.4258C69.7363 25.2266 68.9453 25.9492 68.1055 26.5938C67.2852 27.2188 66.4355 27.7266 65.5566 28.1172C64.6973 28.5078 63.8574 28.7031 63.0371 28.7031C62.6074 28.7031 62.1387 28.5957 61.6309 28.3809C61.1426 28.1855 60.6934 27.873 60.2832 27.4434C59.873 27.0137 59.541 26.457 59.2871 25.7734C59.0527 25.0898 58.9844 24.2598 59.082 23.2832C59.1602 22.4824 59.4043 21.6426 59.8145 20.7637C60.2441 19.8652 60.7617 19.0449 61.3672 18.3027C61.9922 17.5605 62.6855 16.9453 63.4473 16.457C64.2285 15.9688 65.0098 15.7246 65.791 15.7246C66.5332 15.7246 67.0703 15.9102 67.4023 16.2812C67.7344 16.6523 67.8809 17.1113 67.8418 17.6582C67.7832 18.2637 67.6074 18.8203 67.3145 19.3281C67.041 19.8359 66.709 20.2949 66.3184 20.7051C65.9277 21.1152 65.5078 21.4863 65.0586 21.8184C64.6289 22.1504 64.2188 22.4531 63.8281 22.7266C63.3984 23.0195 62.9883 23.3027 62.5977 23.5762C62.207 23.8301 61.8652 24.0645 61.5723 24.2793C61.5918 24.7676 61.6797 25.1777 61.8359 25.5098C61.9922 25.8418 62.1875 26.1152 62.4219 26.3301C62.6562 26.5254 62.9199 26.6719 63.2129 26.7695C63.5254 26.8477 63.8379 26.8867 64.1504 26.8867C64.8145 26.8867 65.5078 26.6816 66.2305 26.2715C66.9531 25.8418 67.6562 25.334 68.3398 24.748C69.043 24.1426 69.6875 23.5176 70.2734 22.873C70.8789 22.2285 71.377 21.6719 71.7676 21.2031C71.9043 21.0469 72.041 20.959 72.1777 20.9395C72.334 20.9004 72.4512 20.9199 72.5293 20.998C72.627 21.0566 72.6758 21.1738 72.6758 21.3496C72.6758 21.5059 72.6074 21.6914 72.4707 21.9062ZM64.9707 17.3945C64.7363 17.3945 64.4531 17.5117 64.1211 17.7461C63.8086 17.9805 63.4961 18.3223 63.1836 18.7715C62.8711 19.2012 62.5781 19.7383 62.3047 20.3828C62.0312 21.0078 61.8262 21.7305 61.6895 22.5508C61.9238 22.375 62.1777 22.1992 62.4512 22.0234C62.7246 21.8281 62.998 21.623 63.2715 21.4082C64.1113 20.7637 64.6973 20.1973 65.0293 19.709C65.3613 19.2207 65.5469 18.8008 65.5859 18.4492C65.625 18.0781 65.5859 17.8145 65.4688 17.6582C65.3516 17.4824 65.1855 17.3945 64.9707 17.3945ZM69.248 27.8535C69.1113 28.0684 68.9648 28.2051 68.8086 28.2637C68.6328 28.3418 68.4863 28.3516 68.3691 28.293C68.2324 28.2539 68.1445 28.1562 68.1055 28C68.0664 27.8438 68.1055 27.6484 68.2227 27.4141C68.2812 27.2969 68.418 27.0332 68.6328 26.623C68.8281 26.2129 69.0723 25.7246 69.3652 25.1582C69.6387 24.5723 69.9414 23.9473 70.2734 23.2832C70.6055 22.5996 70.918 21.9551 71.2109 21.3496C71.5234 20.7441 71.8066 20.207 72.0605 19.7383C72.3145 19.25 72.5 18.8984 72.6172 18.6836C72.4023 18.4883 72.2559 18.3516 72.1777 18.2734C72.0996 18.1758 72.041 17.9805 72.002 17.6875C71.9629 17.4336 72.0215 17.1016 72.1777 16.6914C72.334 16.2812 72.5391 15.8906 72.793 15.5195C73.0469 15.1289 73.3301 14.7969 73.6426 14.5234C73.9551 14.25 74.2578 14.1133 74.5508 14.1133C75.0977 14.1133 75.4785 14.2891 75.6934 14.6406C75.9277 14.9922 76.0645 15.3535 76.1035 15.7246C76.1426 15.9785 76.123 16.3008 76.0449 16.6914C75.9668 17.082 75.8203 17.4336 75.6055 17.7461C75.6641 17.7852 75.7422 17.834 75.8398 17.8926C75.9375 17.9316 76.0938 17.9512 76.3086 17.9512C76.6211 17.9512 76.8359 17.9316 76.9531 17.8926C77.0898 17.8535 77.2949 17.834 77.5684 17.834C77.9004 17.834 78.1738 17.9219 78.3887 18.0977C78.6035 18.2539 78.7793 18.459 78.916 18.7129C79.0527 18.9473 79.1504 19.2109 79.209 19.5039C79.2871 19.7773 79.3359 20.0312 79.3555 20.2656C79.4141 20.7539 79.2871 21.2617 78.9746 21.7891C78.6621 22.3164 78.2812 22.8926 77.832 23.5176C77.5586 23.9082 77.2852 24.3477 77.0117 24.8359C76.7383 25.3242 76.6211 25.7637 76.6602 26.1543C76.6992 26.4082 76.7676 26.6133 76.8652 26.7695C76.9629 26.9258 77.2363 27.0039 77.6855 27.0039C78.0176 27.0039 78.3789 26.8867 78.7695 26.6523C79.1797 26.3984 79.5898 26.0859 80 25.7148C80.4297 25.3242 80.8496 24.9043 81.2598 24.4551C81.6699 23.9863 82.0508 23.5371 82.4023 23.1074C82.7539 22.6582 83.0469 22.2578 83.2812 21.9062C83.5352 21.5547 83.7207 21.3008 83.8379 21.1445C83.9355 20.9883 84.0625 20.8809 84.2188 20.8223C84.375 20.7637 84.5117 20.7637 84.6289 20.8223C84.7461 20.8809 84.8145 20.998 84.834 21.1738C84.873 21.3496 84.8047 21.584 84.6289 21.877C84.5117 22.0723 84.3066 22.3848 84.0137 22.8145C83.7402 23.2441 83.3984 23.7227 82.9883 24.25C82.5977 24.7773 82.1582 25.3242 81.6699 25.8906C81.1816 26.4375 80.6641 26.9453 80.1172 27.4141C79.5898 27.8633 79.0527 28.2344 78.5059 28.5273C77.9785 28.8203 77.4707 28.9668 76.9824 28.9668C76.4746 28.9668 76.0547 28.8691 75.7227 28.6738C75.3906 28.4785 75.1172 28.2441 74.9023 27.9707C74.707 27.6777 74.5605 27.3652 74.4629 27.0332C74.3848 26.6816 74.3555 26.3594 74.375 26.0664C74.3945 25.832 74.4531 25.5879 74.5508 25.334C74.668 25.0605 74.7949 24.7871 74.9316 24.5137C75.0879 24.2207 75.2441 23.9375 75.4004 23.6641C75.5762 23.3711 75.7324 23.0879 75.8691 22.8145C76.2012 22.248 76.4648 21.7695 76.6602 21.3789C76.875 20.9688 76.9824 20.627 76.9824 20.3535C76.9824 20.1777 76.9434 20.0215 76.8652 19.8848C76.7871 19.748 76.6602 19.6797 76.4844 19.6797C76.3672 19.6797 76.2793 19.6895 76.2207 19.709C76.1816 19.709 76.1328 19.709 76.0742 19.709C76.0352 19.709 75.9668 19.7188 75.8691 19.7383C75.791 19.7383 75.6641 19.7383 75.4883 19.7383C75.2344 19.7383 75.0195 19.6992 74.8438 19.6211C74.668 19.543 74.502 19.4844 74.3457 19.4453C74.2676 19.582 74.0918 19.875 73.8184 20.3242C73.5449 20.7734 73.2227 21.3008 72.8516 21.9062C72.5 22.5117 72.1191 23.1465 71.709 23.8105C71.3184 24.4746 70.9473 25.0996 70.5957 25.6855C70.2441 26.252 69.9512 26.7402 69.7168 27.1504C69.4629 27.541 69.3066 27.7754 69.248 27.8535ZM90.2539 17.2188C90.5078 17.0234 90.752 16.877 90.9863 16.7793C91.2402 16.6621 91.4648 16.584 91.6602 16.5449C91.875 16.4863 92.0898 16.4668 92.3047 16.4863C92.832 16.5254 93.1543 16.6914 93.2715 16.9844C93.4082 17.2773 93.4277 17.7461 93.3301 18.3906C93.2715 18.7227 93.1543 19.1426 92.9785 19.6504C92.8027 20.1582 92.5977 20.7832 92.3633 21.5254C92.1289 22.248 91.875 23.0781 91.6016 24.0156C91.3477 24.9531 91.1035 26.0078 90.8691 27.1797C90.6348 28.1367 90.3809 29.2402 90.1074 30.4902C89.873 31.584 89.5898 32.9023 89.2578 34.4453C88.9453 35.9883 88.6035 37.7559 88.2324 39.748C88.1348 40.2363 87.9199 40.5195 87.5879 40.5977C87.2754 40.6758 86.9434 40.6367 86.5918 40.4805C86.4551 40.4023 86.3281 40.3145 86.2109 40.2168C86.1133 40.1191 86.0059 40.002 85.8887 39.8652C85.7715 39.748 85.6738 39.582 85.5957 39.3672C86.0449 37.7266 86.4355 36.2324 86.7676 34.8848C87.1191 33.5371 87.4316 32.3652 87.7051 31.3691C87.998 30.2168 88.2715 29.1816 88.5254 28.2637C88.623 27.8535 88.7109 27.4531 88.7891 27.0625C88.8867 26.6523 88.9844 26.252 89.082 25.8613C88.8281 26.2715 88.5547 26.6621 88.2617 27.0332C87.9688 27.4043 87.6465 27.7266 87.2949 28C86.9434 28.2734 86.5625 28.4785 86.1523 28.6152C85.7617 28.7715 85.3516 28.8203 84.9219 28.7617C83.8672 28.625 83.1152 28.2344 82.666 27.5898C82.2363 26.9453 82.0508 26.1055 82.1094 25.0703C82.1289 24.6602 82.1875 24.2109 82.2852 23.7227C82.3828 23.2344 82.4902 22.7656 82.6074 22.3164C82.7246 21.8672 82.832 21.4668 82.9297 21.1152C83.0469 20.7441 83.1348 20.4805 83.1934 20.3242C83.4277 19.582 83.5938 18.9473 83.6914 18.4199C83.8086 17.8926 83.7305 17.4531 83.457 17.1016C83.7305 16.9258 83.9844 16.8086 84.2188 16.75C84.4727 16.6719 84.6973 16.6133 84.8926 16.5742C85.1074 16.5547 85.3223 16.5547 85.5371 16.5742C86.0645 16.6523 86.3672 16.8477 86.4453 17.1602C86.543 17.4727 86.5137 17.9414 86.3574 18.5664C86.2793 18.8984 86.1523 19.3281 85.9766 19.8555C85.8008 20.3633 85.6152 20.8906 85.4199 21.4375C85.2246 21.9844 85.0488 22.4922 84.8926 22.9609C84.7363 23.4102 84.6484 23.7324 84.6289 23.9277C84.4531 24.8066 84.4434 25.4902 84.5996 25.9785C84.7559 26.4473 85.0977 26.6816 85.625 26.6816C85.8789 26.6816 86.1621 26.5742 86.4746 26.3594C86.7871 26.125 87.0996 25.8223 87.4121 25.4512C87.7441 25.0801 88.0664 24.6602 88.3789 24.1914C88.6914 23.7031 88.9746 23.2148 89.2285 22.7266C89.502 22.2383 89.7363 21.7598 89.9316 21.291C90.1465 20.8223 90.3027 20.4023 90.4004 20.0312C90.5371 19.3086 90.625 18.7422 90.6641 18.332C90.7031 17.9219 90.5664 17.5508 90.2539 17.2188Z" fill="white"/>
<path d="M109.08 28V7.36C109.08 7.24 109.1 7.16 109.14 7.12C109.18 7.06 109.29 7.03 109.47 7.03C109.67 7.01 109.99 7 110.43 7V27.64C110.43 27.76 110.41 27.85 110.37 27.91C110.35 27.95 110.24 27.98 110.04 28C109.86 28 109.54 28 109.08 28ZM100.77 28V7.36C100.77 7.24 100.79 7.16 100.83 7.12C100.87 7.06 100.98 7.03 101.16 7.03C101.36 7.01 101.68 7 102.12 7V27.64C102.12 27.76 102.1 27.85 102.06 27.91C102.04 27.95 101.93 27.98 101.73 28C101.55 28 101.23 28 100.77 28ZM101.52 17.2V15.88H109.74V17.2H101.52ZM117.972 28.3C117.272 28.3 116.632 28.21 116.052 28.03C115.472 27.85 114.972 27.5 114.552 26.98C114.152 26.44 113.842 25.66 113.622 24.64C113.402 23.6 113.292 22.23 113.292 20.53C113.292 17.75 113.742 15.75 114.642 14.53C115.542 13.31 116.762 12.7 118.302 12.7C119.342 12.7 120.202 12.93 120.882 13.39C121.562 13.83 122.072 14.62 122.412 15.76C122.752 16.88 122.922 18.46 122.922 20.5C122.922 23.18 122.492 25.15 121.632 26.41C120.792 27.67 119.572 28.3 117.972 28.3ZM118.002 27.1C118.722 27.1 119.342 26.87 119.862 26.41C120.382 25.95 120.782 25.24 121.062 24.28C121.362 23.3 121.512 22.02 121.512 20.44C121.512 18.66 121.382 17.3 121.122 16.36C120.862 15.42 120.492 14.78 120.012 14.44C119.532 14.08 118.942 13.9 118.242 13.9C117.542 13.9 116.922 14.11 116.382 14.53C115.862 14.95 115.452 15.65 115.152 16.63C114.872 17.61 114.732 18.96 114.732 20.68C114.732 22 114.802 23.08 114.942 23.92C115.102 24.76 115.312 25.41 115.572 25.87C115.852 26.33 116.202 26.65 116.622 26.83C117.042 27.01 117.502 27.1 118.002 27.1ZM130.29 28.3C129.11 28.3 128.2 28.12 127.56 27.76C126.94 27.38 126.5 26.79 126.24 25.99C126 25.19 125.88 24.12 125.88 22.78V13.36C125.88 13.24 125.89 13.16 125.91 13.12C125.95 13.06 126.06 13.03 126.24 13.03C126.44 13.01 126.77 13 127.23 13V22.99C127.23 24.03 127.32 24.85 127.5 25.45C127.68 26.03 128 26.45 128.46 26.71C128.92 26.95 129.58 27.07 130.44 27.07C130.8 27.07 131.27 27.02 131.85 26.92C132.45 26.8 133 26.6 133.5 26.32V13.36C133.5 13.24 133.52 13.16 133.56 13.12C133.62 13.06 133.74 13.03 133.92 13.03C134.12 13.01 134.43 13 134.85 13V27.28C134.17 27.64 133.42 27.9 132.6 28.06C131.78 28.22 131.01 28.3 130.29 28.3ZM141.805 28.3C140.625 28.3 139.695 28.18 139.015 27.94C138.335 27.68 137.995 27.39 137.995 27.07C137.995 26.95 138.015 26.82 138.055 26.68C138.095 26.52 138.175 26.37 138.295 26.23C138.755 26.51 139.245 26.72 139.765 26.86C140.305 26.98 140.955 27.04 141.715 27.04C142.775 27.04 143.625 26.84 144.265 26.44C144.905 26.02 145.225 25.38 145.225 24.52C145.225 23.88 145.075 23.32 144.775 22.84C144.495 22.34 144.025 21.86 143.365 21.4L140.125 19.21C139.245 18.63 138.675 18.1 138.415 17.62C138.175 17.14 138.055 16.62 138.055 16.06C138.055 15.36 138.255 14.76 138.655 14.26C139.075 13.76 139.645 13.38 140.365 13.12C141.105 12.84 141.955 12.7 142.915 12.7C143.835 12.7 144.575 12.79 145.135 12.97C145.695 13.15 146.105 13.35 146.365 13.57C146.645 13.79 146.785 13.98 146.785 14.14C146.785 14.38 146.665 14.64 146.425 14.92C145.905 14.58 145.375 14.33 144.835 14.17C144.315 14.01 143.715 13.93 143.035 13.93C142.055 13.93 141.225 14.11 140.545 14.47C139.885 14.83 139.555 15.36 139.555 16.06C139.555 16.42 139.655 16.77 139.855 17.11C140.055 17.45 140.485 17.84 141.145 18.28L144.565 20.56C145.285 21.12 145.815 21.7 146.155 22.3C146.515 22.88 146.695 23.55 146.695 24.31C146.695 25.61 146.265 26.6 145.405 27.28C144.545 27.96 143.345 28.3 141.805 28.3ZM154.194 28.3C153.494 28.3 152.834 28.22 152.214 28.06C151.614 27.9 151.084 27.58 150.624 27.1C150.184 26.62 149.844 25.92 149.604 25C149.364 24.06 149.244 22.84 149.244 21.34C149.244 19.4 149.404 17.85 149.724 16.69C150.044 15.53 150.464 14.67 150.984 14.11C151.524 13.53 152.104 13.15 152.724 12.97C153.364 12.79 153.994 12.7 154.614 12.7C155.934 12.7 156.884 13.13 157.464 13.99C158.064 14.83 158.364 15.98 158.364 17.44C158.364 18.04 158.344 18.65 158.304 19.27C158.284 19.87 158.224 20.42 158.124 20.92C157.284 21.08 156.404 21.2 155.484 21.28C154.564 21.36 153.694 21.41 152.874 21.43C152.074 21.45 151.414 21.46 150.894 21.46C150.394 21.44 150.144 21.43 150.144 21.43V20.26C150.144 20.26 150.384 20.27 150.864 20.29C151.344 20.29 151.934 20.28 152.634 20.26C153.354 20.24 154.094 20.2 154.854 20.14C155.634 20.08 156.324 19.98 156.924 19.84C156.964 19.46 156.994 19.1 157.014 18.76C157.034 18.42 157.044 18.09 157.044 17.77C157.024 16.53 156.844 15.58 156.504 14.92C156.164 14.26 155.504 13.93 154.524 13.93C154.084 13.93 153.634 14.01 153.174 14.17C152.734 14.31 152.314 14.63 151.914 15.13C151.514 15.61 151.194 16.35 150.954 17.35C150.734 18.33 150.624 19.67 150.624 21.37C150.624 22.61 150.704 23.6 150.864 24.34C151.044 25.08 151.304 25.64 151.644 26.02C151.984 26.4 152.384 26.66 152.844 26.8C153.304 26.92 153.814 26.98 154.374 26.98C155.074 26.98 155.744 26.89 156.384 26.71C157.044 26.53 157.604 26.27 158.064 25.93C158.124 26.09 158.164 26.26 158.184 26.44C158.224 26.62 158.244 26.77 158.244 26.89C158.244 27.09 158.054 27.3 157.674 27.52C157.294 27.74 156.794 27.92 156.174 28.06C155.574 28.22 154.914 28.3 154.194 28.3Z" fill="white"/>
</g>
<defs>
<filter id="filter0_d_103_2" x="0.941406" y="5.85156" width="161.422" height="42.8633" filterUnits="userSpaceOnUse" color-interpolation-filters="sRGB">
<feFlood flood-opacity="0" result="BackgroundImageFix"/>
<feColorMatrix in="SourceAlpha" type="matrix" values="0 0 0 0 0 0 0 0 0 0 0 0 0 0 0 0 0 0 127 0" result="hardAlpha"/>
<feOffset dy="4"/>
<feGaussianBlur stdDeviation="2"/>
<feComposite in2="hardAlpha" operator="out"/>
<feColorMatrix type="matrix" values="0 0 0 0 0 0 0 0 0 0 0 0 0 0 0 0 0 0 0.38 0"/>
<feBlend mode="normal" in2="BackgroundImageFix" result="effect1_dropShadow_103_2"/>
<feBlend mode="normal" in="SourceGraphic" in2="effect1_dropShadow_103_2" result="shape"/>
</filter>
<filter id="filter1_d_103_2" x="4.86035" y="30.5" width="91.4684" height="16.98" filterUnits="userSpaceOnUse" color-interpolation-filters="sRGB">
<feFlood flood-opacity="0" result="BackgroundImageFix"/>
<feColorMatrix in="SourceAlpha" type="matrix" values="0 0 0 0 0 0 0 0 0 0 0 0 0 0 0 0 0 0 127 0" result="hardAlpha"/>
<feOffset dy="4"/>
<feGaussianBlur stdDeviation="2"/>
<feComposite in2="hardAlpha" operator="out"/>
<feColorMatrix type="matrix" values="0 0 0 0 0 0 0 0 0 0 0 0 0 0 0 0 0 0 0.25 0"/>
<feBlend mode="normal" in2="BackgroundImageFix" result="effect1_dropShadow_103_2"/>
<feBlend mode="normal" in="SourceGraphic" in2="effect1_dropShadow_103_2" result="shape"/>
</filter>
</defs>
</svg>
